<?xml version="1.0" encoding="UTF-8"?>
<svg width="521px" height="97px" viewBox="0 0 521 97" xmlns="http://www.w3.org/2000/svg" xmlns:xlink="http://www.w3.org/1999/xlink" version="1.1">
 <!-- Generated by Pixelmator Pro 1.2 -->
 <path id="path" d="M45.354 29.548 C40.293 24.484 34.2 21.95 26.981 21.948 19.761 21.945 13.666 24.475 8.602 29.536 3.537 34.597 1.004 40.784 1.001 47.909 L0.986 91.037 C0.985 92.35 1.36 93.381 2.297 94.226 3.141 95.163 4.172 95.539 5.485 95.539 6.703 95.54 7.735 95.165 8.579 94.228 9.517 93.384 9.986 92.353 9.987 91.041 L9.995 67.601 C14.775 71.822 20.493 73.981 26.963 73.983 34.182 73.985 40.277 71.456 45.341 66.395 50.406 61.24 53.033 55.147 53.036 47.928 53.038 40.802 50.416 34.613 45.354 29.548 Z M26.966 64.982 C22.278 64.981 18.247 63.291 14.967 60.009 11.593 56.632 10 52.6 10.002 47.913 10.003 44.912 10.754 42.006 12.255 39.381 13.756 36.757 15.819 34.695 18.445 33.196 21.071 31.696 23.884 30.947 26.978 30.948 31.665 30.95 35.696 32.639 38.977 35.922 42.351 39.298 44.037 43.236 44.035 47.924 44.034 52.612 42.345 56.643 38.968 60.017 35.686 63.297 31.654 64.984 26.966 64.982 Z" fill="#b3490f" fill-opacity="1" stroke="none"/>
 <path id="path-1" d="M115.728 22.073 C114.415 22.072 113.29 22.541 112.352 23.478 111.414 24.415 111.039 25.446 111.038 26.759 L111.03 50.104 C111.029 54.136 109.528 57.604 106.714 60.416 103.807 63.321 100.431 64.727 96.399 64.725 92.368 64.724 88.993 63.316 86.087 60.409 83.276 57.595 81.871 54.126 81.872 50.094 L81.88 26.749 C81.881 25.436 81.412 24.405 80.475 23.467 79.538 22.529 78.507 22.059 77.194 22.059 75.881 22.059 74.756 22.527 73.818 23.464 72.88 24.401 72.505 25.433 72.504 26.745 L72.496 50.091 C72.494 56.747 74.742 62.374 79.428 67.063 84.115 71.753 89.739 74.098 96.396 74.101 102.959 74.103 108.679 71.761 113.368 67.075 118.058 62.389 120.404 56.764 120.406 50.108 L120.414 26.762 C120.415 25.449 119.946 24.418 119.009 23.48 118.072 22.542 117.041 22.073 115.728 22.073 Z" fill="#b3490f" fill-opacity="1" stroke="none"/>
 <path id="path-2" d="M193 48.167 C193.003 40.947 190.38 34.852 185.319 29.694 180.164 24.629 174.071 22.002 166.851 22 159.632 21.997 153.537 24.62 148.378 29.681 143.314 34.836 140.78 40.929 140.778 48.149 140.775 55.368 143.305 61.463 148.366 66.621 153.52 71.686 159.614 74.22 166.833 74.222 173.302 74.224 178.928 72.164 183.899 67.946 L183.898 69.728 C183.897 74.415 182.208 78.446 178.925 81.727 175.549 85.101 171.517 86.693 166.829 86.692 163.922 86.69 161.203 86.034 158.673 84.626 156.141 83.313 154.08 81.343 152.58 78.905 151.831 77.873 150.893 77.217 149.675 77.029 148.456 76.747 147.331 76.934 146.299 77.59 145.268 78.246 144.611 79.183 144.329 80.402 144.048 81.621 144.329 82.746 144.984 83.778 146.577 86.31 148.545 88.467 150.795 90.249 153.044 92.031 155.575 93.344 158.294 94.283 161.013 95.221 163.919 95.691 166.825 95.692 174.045 95.695 180.14 93.165 185.204 88.104 190.269 83.043 192.896 76.95 192.899 69.731 L192.906 50.417 C192.906 49.667 193 48.917 193 48.167 Z M166.836 65.034 C162.148 65.032 158.211 63.437 154.931 60.06 151.557 56.778 149.964 52.84 149.966 48.152 149.967 43.464 151.563 39.527 154.939 36.153 158.222 32.872 162.16 31.186 166.848 31.188 171.536 31.189 175.473 32.878 178.847 36.161 182.128 39.537 183.814 43.476 183.812 48.164 183.81 52.851 182.122 56.789 178.839 60.069 175.462 63.443 171.524 65.035 166.836 65.034 Z" fill="#cc8039" fill-opacity="1" stroke="none"/>
 <path id="path-3" d="M218.312 66.362 C223.373 71.52 229.466 74.054 236.685 74.056 243.904 74.059 250 71.529 255.064 66.375 260.129 61.313 262.756 55.22 262.759 48.001 L262.774 4.873 C262.774 3.654 262.306 2.623 261.368 1.685 260.525 0.84 259.494 0.371 258.275 0.371 256.963 0.37 255.931 0.839 255.087 1.682 254.149 2.62 253.773 3.651 253.773 4.87 L253.765 28.309 C248.891 24.088 243.172 22.023 236.703 22.021 229.484 22.019 223.389 24.548 218.324 29.609 213.26 34.67 210.726 40.857 210.724 47.983 210.721 55.202 213.25 61.297 218.312 66.362 Z M236.7 31.022 C241.388 31.023 245.419 32.713 248.699 35.995 252.073 39.278 253.76 43.31 253.758 47.998 253.756 52.686 252.067 56.717 248.691 60.091 245.408 63.371 241.376 65.057 236.688 65.056 232 65.054 227.969 63.365 224.689 60.082 221.315 56.706 219.723 52.674 219.724 47.986 219.726 43.298 221.321 39.267 224.698 35.987 227.98 32.706 232.012 31.02 236.7 31.022 Z" fill="#cc8039" fill-opacity="1" stroke="none"/>
 <path id="path-4" d="M308.181 73.988 C314.369 73.99 319.808 72.116 324.591 68.18 325.622 67.431 326.091 66.399 326.279 65.181 326.374 63.868 326.093 62.837 325.249 61.805 324.5 60.867 323.468 60.304 322.25 60.21 321.031 60.116 319.906 60.397 318.968 61.24 315.779 63.771 312.216 64.988 308.184 64.987 303.496 64.985 299.466 63.39 296.185 60.013 292.811 56.731 291.219 52.699 291.22 48.011 291.222 43.323 292.817 39.292 296.194 35.918 299.476 32.638 303.508 30.951 308.196 30.953 312.04 30.954 315.509 32.174 318.602 34.519 321.601 36.865 323.569 39.865 324.599 43.522 L308.192 43.516 C306.973 43.516 305.848 43.984 305.004 44.828 304.16 45.672 303.69 46.796 303.69 48.015 303.69 49.234 304.158 50.359 305.001 51.203 305.845 52.047 306.97 52.517 308.189 52.517 L329.753 52.525 C330.972 52.525 332.003 52.057 332.847 51.213 333.785 50.37 334.254 49.245 334.255 48.026 334.257 40.807 331.634 34.712 326.573 29.647 321.512 24.582 315.419 21.955 308.199 21.952 300.98 21.95 294.885 24.573 289.82 29.634 284.756 34.695 282.222 40.788 282.22 48.008 282.217 55.227 284.746 61.322 289.808 66.387 294.869 71.451 300.962 73.985 308.181 73.988 Z" fill="#e2af5e" fill-opacity="1" stroke="none"/>
 <path id="path-5" d="M395.254 29.671 C390.192 24.606 384.099 22.073 376.88 22.07 369.661 22.068 363.566 24.597 358.501 29.658 353.436 34.719 350.903 40.906 350.9 48.032 L350.885 91.16 C350.885 92.472 351.259 93.504 352.197 94.348 353.04 95.286 354.071 95.661 355.384 95.662 356.603 95.662 357.634 95.287 358.478 94.35 359.416 93.507 359.885 92.476 359.886 91.163 L359.894 67.724 C364.674 71.945 370.392 74.103 376.862 74.105 384.081 74.108 390.176 71.578 395.241 66.517 400.305 61.363 402.933 55.269 402.935 48.05 402.938 40.924 400.315 34.736 395.253 29.671 Z M376.865 65.105 C372.177 65.103 368.146 63.414 364.866 60.131 361.492 56.755 359.899 52.723 359.901 48.035 359.902 45.035 360.653 42.129 362.154 39.504 363.655 36.879 365.718 34.817 368.344 33.318 370.97 31.819 373.783 31.07 376.877 31.071 381.564 31.072 385.595 32.762 388.876 36.044 392.25 39.421 393.936 43.359 393.934 48.047 393.933 52.735 392.244 56.766 388.867 60.14 385.585 63.42 381.553 65.106 376.865 65.105 Z" fill="#e2af5e" fill-opacity="1" stroke="none"/>
 <path id="path-6" d="M452.425 22.197 C444.551 22.049 437.843 24.735 432.113 30.16 426.479 35.586 423.634 42.19 423.486 50.065 L423.112 69.843 C423.087 71.156 423.442 72.194 424.364 73.056 425.19 74.008 426.214 74.403 427.526 74.428 428.745 74.451 429.783 74.095 430.644 73.174 431.598 72.348 432.086 71.326 432.11 70.014 L432.484 50.234 C432.585 44.891 434.547 40.333 438.367 36.654 442.283 32.884 446.912 31.096 452.255 31.197 453.474 31.22 454.513 30.77 455.467 29.945 456.328 29.023 456.816 28.001 456.84 26.782 456.862 25.564 456.415 24.43 455.587 23.57 454.666 22.709 453.644 22.221 452.425 22.197 Z" fill="#fbe688" fill-opacity="1" stroke="none"/>
 <path id="path-7" d="M494.927 74.053 C502.147 74.055 508.242 71.526 513.307 66.465 518.371 61.404 520.999 55.311 521.001 48.091 521.004 40.872 518.38 34.777 513.319 29.712 508.258 24.648 502.165 22.02 494.946 22.018 487.727 22.015 481.631 24.638 476.567 29.699 471.502 34.761 468.969 40.854 468.966 48.073 468.964 55.292 471.493 61.387 476.554 66.452 481.615 71.517 487.708 74.05 494.927 74.053 Z M494.943 31.018 C499.63 31.02 503.661 32.709 507.035 35.992 510.316 39.368 512.002 43.4 512 48.088 511.999 52.776 510.31 56.807 507.027 60.087 503.651 63.461 499.619 65.054 494.931 65.052 490.243 65.051 486.212 63.455 482.932 60.079 479.557 56.796 477.965 52.764 477.967 48.076 477.968 43.388 479.563 39.357 482.94 35.983 486.223 32.703 490.255 31.017 494.943 31.018 Z" fill="#fbe688" fill-opacity="1" stroke="none"/>
</svg>
